HIERARCHY
ROOT Hips
{
	OFFSET	0.00	0.00	0.00
	CHANNELS 6 Xposition Yposition Zposition Zrotation Yrotation Xrotation
	JOINT Spine
	{
		OFFSET	 0.00	0.1	 0.00
		CHANNELS 3 Zrotation Yrotation Xrotation
		JOINT Spine1
		{
			OFFSET	 0.00	 24.5913012437421	 0.00
			CHANNELS 3 Zrotation Yrotation Xrotation
            JOINT Neck
            {
                OFFSET	 0.00	 24.8462964506057	 0.00
                CHANNELS 3 Zrotation Yrotation Xrotation
                JOINT Head
                {
                    OFFSET	 0.00	 9.27524780924562	 0.00
                    CHANNELS 3 Zrotation Yrotation Xrotation
                    End Site
                    {
                        OFFSET	 0.00	 11.4999962169752	 0.00
                    }
                }
            }
			JOINT LeftShoulder
			{
				OFFSET	 0.00	 24.8462964506057	 0.00
				CHANNELS 3 Zrotation Yrotation Xrotation
				JOINT LeftUpArm
				{
					OFFSET	 0.00	 12.4881979654096	 0.00
					CHANNELS 3 Zrotation Yrotation Xrotation
					JOINT LeftForeArm
					{
						OFFSET	 0.00	25.9758046908119	 0.00
						CHANNELS 3 Zrotation Yrotation Xrotation
						JOINT LeftHand
						{
							OFFSET	 0.00	24.5542024364365	 0.00
							CHANNELS 3 Zrotation Yrotation Xrotation
							JOINT LeftHandThumb
							{
								OFFSET	 0.00	0.00	 0.00
								CHANNELS 3 Zrotation Yrotation Xrotation
								End Site
								{
									OFFSET	 0.00	0.00	10.0000003353624
								}
							}
							JOINT L_Wrist_End
							{
								OFFSET	 0.00	9.9999967115358	 0.00
								CHANNELS 3 Zrotation Yrotation Xrotation
								End Site
								{
									OFFSET	 0.00	 0.00	 0.00
								}
							}
						}
					}
				}
			}
			JOINT RightShoulder
			{
				OFFSET	 0.00	 24.8462964506057	 0.00
				CHANNELS 3 Zrotation Yrotation Xrotation
				JOINT RightUpArm
				{
					OFFSET	 0.00	 12.4881979654096	 0.00
					CHANNELS 3 Zrotation Yrotation Xrotation
					JOINT RightForeArm
					{
						OFFSET	 0.00	25.9758046908119	 0.00
						CHANNELS 3 Zrotation Yrotation Xrotation
						JOINT RightHand
						{
							OFFSET	 0.00	24.5542024364365	 0.00
							CHANNELS 3 Zrotation Yrotation Xrotation
							JOINT RightHandThumb
							{
								OFFSET	 0.00	0.00	 0.00
								CHANNELS 3 Zrotation Yrotation Xrotation
								End Site
								{
									OFFSET	 0.00	0.00	10.0000003353624
								}
							}
							JOINT R_Wrist_End
							{
								OFFSET	 0.00	9.9999967115358	 0.00
								CHANNELS 3 Zrotation Yrotation Xrotation
								End Site
								{
									OFFSET	 0.00	 0.00	 0.00
								}
							}
						}
					}
				}
			}
		}
	}
	JOINT LeftUpLeg
	{
		OFFSET	 12.719394002717	 0.00	 0.00
		CHANNELS 3 Zrotation Yrotation Xrotation
		JOINT LeftLowLeg
		{
			OFFSET	 0.00	-43.429100912261	 0.00
			CHANNELS 3 Zrotation Yrotation Xrotation
			JOINT LeftFoot
			{
				OFFSET	 0.00	-44.8767017425826	 0.00
				CHANNELS 3 Zrotation Yrotation Xrotation
				JOINT LeftToeBase
                {
                    OFFSET	 0.00	0.00	 15.1507020887566
                    CHANNELS 3 Zrotation Yrotation Xrotation
                    End Site
                    {
                        OFFSET	 0.00	0.00	 7.5000010571191
                    }
                }
			}
		}
	}
	JOINT RightUpLeg
	{
		OFFSET	 -12.719393604653	 0.00	 0.00
		CHANNELS 3 Zrotation Yrotation Xrotation
		JOINT RightLowLeg
		{
			OFFSET	 0.00	-43.429100912261	 0.00
			CHANNELS 3 Zrotation Yrotation Xrotation
			JOINT RightFoot
			{
				OFFSET	 0.00	-44.8767017425826	 0.00
				CHANNELS 3 Zrotation Yrotation Xrotation
				JOINT RightToeBase
                {
                    OFFSET	 0.00	0.00	 15.1507020887566
                    CHANNELS 3 Zrotation Yrotation Xrotation
                    End Site 
                    {
                        OFFSET	 0.00	0.00	 7.49999965609858
                    }
                }   
			}
		}
	}
}
MOTION 
Frames:	8 
Frame Time: 0.04 
  -59.452301025390625 91.68419799804687 -79.02650146484375 -174.45769951833245 25.888769270375352 -175.80692248555377 -5.4086828892399685 -0.5499406780360496 -6.2880405823231005 13.56442519297789 -3.526264483070719 -2.653537483206439 -15.954603727296318 -14.28099222023422 47.93138766969489 23.89557033270063 15.31213028459246 -81.86018147153484 -126.6335853670488 6.411022231636112 -1.421752836591254 -32.96409749205687 27.76699794698882 7.274199032766689 0.0 0.0 19.49370002746582 12.414507870773742 -4.298646821896565 -9.233360565242467 0.0 0.0 0.0 0.0 0.0 0.0 110.89898828960695 -15.795438153305303 2.3448592915538233 11.938793439922069 -21.14516020366876 4.429968563266827 0.0 0.0 86.05460357666016 28.26086088882477 42.93699135849936 35.06727129024897 0.0 0.0 0.0 0.0 0.0 0.0 -0.44752974578269017 -1.607693136463354 -3.749518041839537 0.0 0.0 12.144700050354004 -11.143743509304585 -4.4072048056016575 2.919540359469764 0.0 0.0 -29.74710083007812 2.8792674267893332 4.313310979945114 -16.729270374756602 0.0 0.0 58.8401985168457 19.271189937857393 9.171018507071642 15.835328199010421 0.0 0.0 -47.968498229980476 
  -58.877001953125 91.76740112304688 -80.7416015625 -173.9519925333694 25.261957706754373 -175.781950279202 -5.449777096110762 -0.8225803758147844 -5.384726623990424 14.242392401184137 -3.7497072626122376 -3.003345360770227 -15.450470092617543 -13.78147857163379 47.14832599165096 24.344777215392458 15.49221880758901 -81.5087965753916 -126.54911981813115 6.32675866787906 -0.9492558685959829 -32.221248669940636 28.266105949217987 8.767401291400502 0.0 0.0 20.73259925842285 13.090938286328706 -3.784520192784326 -8.831220911387128 0.0 0.0 0.0 0.0 0.0 0.0 110.66114642967257 -15.798643465910091 2.2279209395656565 11.88518821810884 -20.709320391414483 4.263736124958228 0.0 0.0 86.3333969116211 28.560816651241858 43.02609560737602 35.20636778461161 0.0 0.0 0.0 0.0 0.0 0.0 -0.044223785582376704 -1.5911283821518865 -2.1319624014298455 0.0 0.0 11.496899604797363 -11.252858131314547 -5.093727479537871 2.55007736528741 0.0 0.0 -29.895900726318356 3.9023906475576156 3.0087067769663944 -18.910454162825403 0.0 0.0 54.888999938964844 13.318212783109338 5.3670662349853835 9.20390919323695 0.0 0.0 -45.71769714355469 
  -58.233001708984375 91.7906982421875 -82.46400146484375 -173.60200118263097 24.735193481415056 -175.38642210958014 -5.636082044709411 -0.9552494022124834 -5.140366191927267 15.09646091135435 -3.877892382588043 -2.937842127361198 -15.139675413619736 -13.49904085491943 46.173786702935956 24.77821625014985 15.572673078680747 -81.46354715437789 -126.69810274063545 6.193103294105881 -0.5997462760796668 -31.74241301772541 28.58278832767327 9.995805717799618 0.0 0.0 22.435800552368164 14.041634060369521 -4.288361623194585 -8.354185615003649 0.0 0.0 0.0 0.0 0.0 0.0 110.38866172749171 -15.832703404134975 2.0152743582995267 11.62050288574503 -20.09072575104523 4.1370702675985385 0.0 0.0 86.7428970336914 28.56746704737916 42.70488260991386 35.37180809079994 0.0 0.0 0.0 0.0 0.0 0.0 0.23551076402948778 -1.6912704195811838 -0.8804895714916923 0.0 0.0 10.813400268554688 -11.495024386588689 -5.484720933892292 2.1691353335842027 0.0 0.0 -29.432100296020508 4.795066839605203 2.2620249251558144 -20.376682041680485 0.0 0.0 47.470401763916016 9.833365112869785 0.6335023404571876 6.363180662126461 0.0 0.0 -43.877601623535156 
  -57.521002197265624 91.72230224609375 -84.1718994140625 -173.42865982116666 24.24256804090722 -174.8069867071391 -5.887006784134321 -1.0931166770471827 -5.111492649701687 15.942078126435392 -3.9988308361652534 -2.885290134549758 -14.82205795196718 -13.172601658888974 44.956817696715575 25.184918919514395 15.615910721254403 -81.42428803176722 -126.92010587824146 6.393967721201521 -0.47955606626839187 -31.44155958705759 28.81633164618384 11.132469680921371 0.0 0.0 24.2278995513916 14.97795574640511 -5.681709116080569 -7.846418737985968 0.0 0.0 0.0 0.0 0.0 0.0 109.99582828636933 -15.646381520805889 1.9495061120953283 11.50041975593405 -19.75960451565812 3.759119807812085 0.0 0.0 87.48619842529297 28.902330200580202 42.763077953214925 35.6517502185775 0.0 0.0 0.0 0.0 0.0 0.0 0.3801947262888716 -1.832969488893528 -0.04376079021247284 0.0 0.0 10.424500465393066 -11.01950927154757 -5.551513232182796 1.5141033261123116 0.0 0.0 -29.434000015258793 5.348742205685038 2.3880449960105627 -21.16316201787552 0.0 0.0 37.595001220703125 8.773281698721748 -3.539918196014242 7.364879670619755 0.0 0.0 -43.38559722900391 
  -56.762701416015624 91.572900390625 -85.85130004882812 -173.4301828768788 23.843814429625684 -174.35228157861843 -6.018777209506228 -1.1318946581383527 -4.813631277528884 16.411531861275506 -3.9726569397254656 -3.155469603833533 -14.323784216742983 -12.72071565448177 43.77899044864723 26.01573555462397 15.772516595288668 -81.25440442719403 -127.12830620105483 6.411907345136916 -0.39673773592227535 -31.7003238796895 29.20155146917585 11.440383218963447 0.0 0.0 26.055200576782227 15.533604312430214 -7.217867090941177 -7.401779584943888 0.0 0.0 0.0 0.0 0.0 0.0 109.73688432871351 -15.945946828937624 1.979809048602348 11.423050392956183 -19.11999148448743 3.1075114648554694 0.0 0.0 88.41290283203125 29.955384540347488 42.81188318493269 36.56002027152606 0.0 0.0 0.0 0.0 0.0 0.0 0.3774127755800924 -1.8347073998452124 0.5758522142538349 0.0 0.0 10.598999977111818 -11.108973019619283 -5.802579582073124 0.7919580955885183 0.0 0.0 -29.50619888305664 5.379594020354103 3.5515429664968794 -21.24266867890917 0.0 0.0 26.807899475097656 9.057197141181833 -6.669747703589225 9.605780688447659 0.0 0.0 -42.2061996459961 
  -55.92230224609375 91.377197265625 -87.6343017578125 -173.5354674093239 24.048906056687503 -174.05514346472842 -6.128645717953537 -0.8197351805582653 -4.646686801653965 16.775837745928285 -3.620311263414594 -3.2310447378504126 -13.765390246909362 -12.524909345216953 42.719153689462985 26.944570040442525 16.01754899605882 -81.15090809188129 -127.60946022352277 6.717910415905444 -0.29714617881426403 -31.827340527651614 29.963153714594146 11.532026978725915 0.0 0.0 27.56170082092285 15.738363513555443 -8.95144968630053 -7.072592547665611 0.0 0.0 0.0 0.0 0.0 0.0 109.49827315831114 -16.08087717706967 1.868474687353191 11.30415315815605 -18.645237968400068 2.5172428071128508 0.0 0.0 89.2166976928711 30.647007029980532 42.33526392972688 37.10648729143937 0.0 0.0 0.0 0.0 0.0 0.0 0.23166942613386624 -1.6198215140516727 1.5313820366905544 0.0 0.0 10.612000465393066 -11.175415637142853 -5.789698664663486 -0.039501467377314595 0.0 0.0 -29.474498748779297 4.961993372942351 5.656749778670406 -21.300848755713034 0.0 0.0 17.48710060119629 8.024400037765385 -10.120849562213387 11.542419389998631 0.0 0.0 -41.545997619628906 
  -55.00260009765625 91.10430297851562 -89.439501953125 -173.86949725039221 23.716541282413996 -173.6665301321133 -6.1855121670292235 -0.8074020060890141 -4.587866469608383 16.853621333896534 -3.558453900359597 -3.4505207010371803 -13.12522963039549 -12.8920316935328 41.77154701877628 27.53332205462097 16.321307166059437 -81.08302688985343 -128.03821210035076 7.381525318421637 -0.20015476015558256 -31.97685956826275 30.562254649648 11.432391481675788 0.0 0.0 28.909599304199215 14.756284336917549 -11.807304718008316 -7.935001346819228 0.0 0.0 0.0 0.0 0.0 0.0 109.29176988180997 -16.194051654932387 1.7225246321979895 11.124421560466912 -18.352608954139342 2.205299988618974 0.0 0.0 89.89649963378906 30.90863986871727 42.136233923288984 37.26035472868559 0.0 0.0 0.0 0.0 0.0 0.0 -0.02229530845686528 -1.8464992970408927 2.100561127508325 0.0 0.0 10.988400459289553 -11.224249220274407 -5.896607187008392 -0.8686971672492091 0.0 0.0 -29.997798919677734 4.645705340777085 5.854174644295466 -21.360721460424926 0.0 0.0 9.905730247497559 6.78517007513528 -12.079978709973188 10.45544778388604 0.0 0.0 -40.01390075683593 
  -53.936102294921874 90.8094970703125 -91.42449951171875 -174.29447555229535 23.240272467352103 -173.37974491415045 -6.102865800262648 -0.9372529862160568 -5.001740918071527 16.6917648174485 -3.7855857036619396 -3.021388493778014 -12.482283574234476 -13.709758250906997 40.587132438926204 27.804632288712483 16.506786158964676 -81.03406872240518 -128.26719602629103 7.820599569567078 -0.019843767921685712 -32.22542117479941 30.87160128544194 11.207866003222762 0.0 0.0 29.764900207519524 11.111169937954918 -16.694183982073515 -8.997791268395565 0.0 0.0 0.0 0.0 0.0 0.0 109.13831257902952 -16.323001328721215 1.5975071577332147 10.823185852719526 -18.021811963425733 2.265775519221314 0.0 0.0 90.41670227050781 30.92039933901639 41.59657507494486 37.35251835538219 0.0 0.0 0.0 0.0 0.0 0.0 -0.2552665768939076 -1.6192084609481712 2.7171557157564 0.0 0.0 11.617600440979004 -10.844467458788685 -6.251082842843984 -1.7419601781892875 0.0 0.0 -29.780300140380856 4.502072958061096 5.422447129753617 -21.203837014762644 0.0 0.0 4.733670234680177 6.532014149881395 -12.741463892750179 8.231441231711804 0.0 0.0 -38.6515998840332 
